<svg width="99" height="18" viewBox="0 0 99 18" fill="none" xmlns="http://www.w3.org/2000/svg">
<path d="M2.936 17V7.496L2.792 4.808H3.008L3.968 7.496L7.592 16.04H10.712L14.312 7.496L15.32 4.808H15.488L15.392 7.496V17H17.96V0.92H14.288L10.688 9.752L9.296 13.592H9.104L7.688 9.752L4.016 0.92H0.344V17H2.936ZM25.6385 17.24C28.8545 17.24 30.9905 15.656 30.9905 13.208V12.992H28.4225V13.184C28.4225 14.264 27.6545 14.936 25.6625 14.936C23.1665 14.936 22.3745 13.832 22.2785 11.648H30.9425C31.0145 11.288 31.0865 10.64 31.0865 10.016C31.0865 6.752 28.8305 4.832 25.6145 4.832C22.0625 4.832 19.8545 7.328 19.8545 11.024C19.8545 14.744 21.7025 17.24 25.6385 17.24ZM25.5665 7.016C27.6065 7.016 28.7105 7.88 28.6145 9.92H22.3025C22.4465 8.072 23.3105 7.016 25.5665 7.016ZM35.7468 17V10.112C35.7468 7.88 36.7068 7.064 38.8188 7.064C41.0028 7.064 41.6748 7.952 41.6748 10.088V17H44.2668V9.512C44.2668 6.8 42.8748 4.832 39.7788 4.832C37.4508 4.832 36.1788 6.032 35.6268 7.304H35.5308V5.072H33.1548V17H35.7468ZM51.4777 17.24C53.5177 17.24 54.8377 16.4 55.4137 15.032H55.5097V17H57.8857V0.92H55.3177V6.92H55.2457C54.7177 5.84 53.4457 4.832 51.3337 4.832C48.0457 4.832 46.2217 7.256 46.2217 11.024C46.2217 14.816 48.0697 17.24 51.4777 17.24ZM48.8137 11.024C48.8137 8.096 49.7737 7.04 52.0537 7.04C54.1657 7.04 55.3177 7.976 55.3177 9.968V12.104C55.3177 14.096 54.1657 15.032 52.0537 15.032C49.7497 15.032 48.8137 13.976 48.8137 11.024ZM65.6463 17.24C68.8623 17.24 70.9983 15.656 70.9983 13.208V12.992H68.4303V13.184C68.4303 14.264 67.6623 14.936 65.6703 14.936C63.1743 14.936 62.3823 13.832 62.2863 11.648H70.9503C71.0223 11.288 71.0943 10.64 71.0943 10.016C71.0943 6.752 68.8383 4.832 65.6223 4.832C62.0703 4.832 59.8623 7.328 59.8623 11.024C59.8623 14.744 61.7103 17.24 65.6463 17.24ZM65.5743 7.016C67.6143 7.016 68.7183 7.88 68.6223 9.92H62.3103C62.4543 8.072 63.3183 7.016 65.5743 7.016ZM75.7546 17V10.112C75.7546 7.88 76.7146 7.064 78.8266 7.064C81.0106 7.064 81.6826 7.952 81.6826 10.088V17H84.2746V9.512C84.2746 6.8 82.8826 4.832 79.7866 4.832C77.4586 4.832 76.1866 6.032 75.6346 7.304H75.5386V5.072H73.1626V17H75.7546ZM91.6078 17C92.4238 17 93.2398 16.904 93.7438 16.784V14.672H92.2798C90.6718 14.672 90.1438 14.456 90.1438 13.208V7.232H93.7438V5.072H90.1438V2.12H88.1518L87.5998 5.072H85.5598V7.232H87.5518V13.328C87.5518 16.016 88.9438 17 91.6078 17ZM98.3054 11.72C98.3054 9.416 98.6894 4.448 98.6894 2.6V0.92H95.4014V2.6C95.4014 4.448 95.7854 9.392 95.7854 11.72H98.3054ZM98.5214 17V13.448H95.5934V17H98.5214Z" fill="black"/>
</svg>
